<svg viewBox="0 0 141.333 141.333" xmlns="http://www.w3.org/2000/svg"><defs><linearGradient id="a" x1=".5" x2=".5" y1="1" y2="0"><stop offset="0" stop-color="#99895a" class="stop-color-0066cc"></stop><stop offset="1" stop-color="#edc756" class="stop-color-99ccff"></stop></linearGradient></defs><path d="M17.333 0C7.76 0 0 7.76 0 17.333V124c0 9.573 7.76 17.333 17.333 17.333H124c9.573 0 17.333-7.76 17.333-17.333V17.333C141.333 7.76 133.573 0 124 0H17.333z" fill="url(#a)" class="fillurl(-a)"></path><path d="M26.732 48.725h18.097v58.22H26.732m18.693-74.412c0 5-3.81 9.05-9.762 9.05-5.716 0-9.526-4.05-9.407-9.05-.119-5.238 3.69-9.168 9.525-9.168 5.834 0 9.524 3.93 9.644 9.168zM59.354 67.299c0-7.263-.237-13.454-.476-18.574h15.716l.834 7.978h.357c2.38-3.69 8.333-9.288 17.978-9.288 11.904 0 20.835 7.858 20.835 25.003v34.527H96.501V74.68c0-7.5-2.619-12.62-9.168-12.62-5 0-7.976 3.453-9.168 6.787-.475 1.07-.714 2.856-.714 4.524v33.574H59.354V67.299z" fill="#ffffff" class="fill-ffffff"></path></svg>